<svg xmlns="http://www.w3.org/2000/svg" xmlns:xlink="http://www.w3.org/1999/xlink" width="16" zoomAndPan="magnify" viewBox="0 0 15.5 15.499999" height="16" preserveAspectRatio="xMidYMid meet" version="1.0"><defs><clipPath id="426e6a91b4"><path d="M 0 0 L 31.007812 0 L 31.007812 31.007812 L 0 31.007812 Z M 0 0 " clip-rule="nonzero"/></clipPath><clipPath id="11d07ea6da"><path d="M 3.511719 5.804688 L 28.261719 5.804688 L 28.261719 26.054688 L 3.511719 26.054688 Z M 3.511719 5.804688 " clip-rule="nonzero"/></clipPath><clipPath id="a8a6f9a53c"><path d="M 25.269531 16.957031 C 25.269531 16.125 25.941406 15.453125 26.765625 15.453125 C 27.59375 15.453125 28.261719 16.128906 28.261719 16.957031 C 28.261719 17.789062 27.589844 18.457031 26.765625 18.457031 C 26.507812 18.457031 26.261719 18.394531 26.050781 18.277344 L 24.976562 19.871094 C 25.230469 20.097656 25.390625 20.425781 25.390625 20.796875 C 25.390625 21.476562 24.84375 22.023438 24.171875 22.023438 C 23.496094 22.023438 22.953125 21.476562 22.953125 20.796875 C 22.953125 20.332031 23.210938 19.925781 23.589844 19.722656 L 23.285156 18.945312 C 23.21875 18.960938 23.144531 18.96875 23.070312 18.96875 C 22.535156 18.96875 22.105469 18.53125 22.105469 17.996094 C 22.105469 17.460938 22.539062 17.023438 23.070312 17.023438 C 23.160156 17.023438 23.246094 17.035156 23.328125 17.058594 L 23.957031 15.65625 C 23.800781 15.535156 23.703125 15.347656 23.703125 15.140625 C 23.703125 14.78125 23.988281 14.488281 24.347656 14.488281 C 24.503906 14.488281 24.648438 14.542969 24.757812 14.640625 L 25.882812 13.78125 C 25.800781 13.632812 25.753906 13.460938 25.753906 13.277344 C 25.753906 12.976562 25.886719 12.699219 26.089844 12.511719 L 25.398438 11.484375 C 25.265625 11.546875 25.121094 11.582031 24.96875 11.582031 C 24.605469 11.582031 24.289062 11.386719 24.117188 11.101562 L 23.0625 11.546875 C 23.0625 11.5625 23.066406 11.578125 23.066406 11.589844 C 23.066406 11.832031 22.890625 12.035156 22.660156 12.074219 L 22.515625 13.101562 C 22.871094 13.214844 23.125 13.546875 23.125 13.941406 C 23.125 14.421875 22.730469 14.820312 22.25 14.820312 C 21.929688 14.820312 21.648438 14.640625 21.492188 14.378906 L 20.242188 14.84375 C 20.242188 14.84375 20.242188 14.847656 20.242188 14.855469 C 20.242188 15.117188 20.035156 15.324219 19.777344 15.324219 C 19.75 15.324219 19.71875 15.320312 19.691406 15.316406 L 19.058594 16.480469 C 19.136719 16.550781 19.199219 16.636719 19.242188 16.730469 L 20.996094 16.359375 C 21.023438 16.128906 21.21875 15.945312 21.457031 15.945312 C 21.714844 15.945312 21.925781 16.15625 21.925781 16.414062 C 21.925781 16.652344 21.742188 16.851562 21.511719 16.878906 L 20.996094 19.355469 C 21.542969 19.535156 21.9375 20.050781 21.9375 20.660156 C 21.9375 21.414062 21.328125 22.027344 20.574219 22.027344 C 20.550781 22.027344 20.527344 22.027344 20.503906 22.027344 L 20.300781 23.300781 C 20.484375 23.382812 20.617188 23.574219 20.617188 23.796875 C 20.617188 24.042969 20.453125 24.25 20.230469 24.316406 L 20.25 25.277344 C 20.394531 25.332031 20.496094 25.476562 20.496094 25.636719 C 20.496094 25.851562 20.324219 26.027344 20.113281 26.027344 C 19.902344 26.027344 19.726562 25.851562 19.726562 25.636719 C 19.726562 25.601562 19.734375 25.5625 19.746094 25.523438 L 19.074219 24.957031 C 18.988281 25.015625 18.886719 25.050781 18.769531 25.050781 C 18.472656 25.050781 18.234375 24.808594 18.234375 24.511719 C 18.234375 24.296875 18.359375 24.117188 18.535156 24.027344 L 18.421875 23.382812 C 18.414062 23.382812 18.402344 23.382812 18.394531 23.382812 C 17.855469 23.382812 17.414062 22.941406 17.414062 22.402344 C 17.414062 21.859375 17.855469 21.417969 18.394531 21.417969 C 18.652344 21.417969 18.882812 21.519531 19.054688 21.679688 L 19.429688 21.382812 C 19.292969 21.167969 19.214844 20.921875 19.214844 20.652344 C 19.214844 20.390625 19.289062 20.148438 19.417969 19.9375 L 18.460938 19.203125 C 18.390625 19.253906 18.300781 19.285156 18.203125 19.285156 C 18.101562 19.285156 18.003906 19.25 17.925781 19.191406 L 17.324219 19.613281 C 17.429688 19.808594 17.488281 20.035156 17.488281 20.273438 C 17.488281 21.042969 16.875 21.660156 16.113281 21.660156 C 15.464844 21.660156 14.925781 21.214844 14.777344 20.613281 L 13.746094 20.753906 C 13.734375 21.246094 13.335938 21.640625 12.84375 21.640625 C 12.34375 21.640625 11.9375 21.234375 11.9375 20.730469 C 11.9375 20.226562 12.34375 19.820312 12.84375 19.820312 C 12.933594 19.820312 13.023438 19.835938 13.105469 19.859375 L 14.203125 17.617188 C 13.921875 17.429688 13.730469 17.117188 13.695312 16.761719 L 12.789062 16.730469 C 12.722656 16.902344 12.5625 17.023438 12.367188 17.023438 C 12.320312 17.023438 12.273438 17.015625 12.226562 17 L 11.5 17.949219 C 11.726562 18.171875 11.863281 18.480469 11.863281 18.828125 C 11.863281 19.507812 11.316406 20.0625 10.636719 20.0625 C 10.070312 20.0625 9.585938 19.667969 9.449219 19.136719 L 8.605469 19.25 C 8.589844 19.734375 8.195312 20.125 7.710938 20.125 C 7.214844 20.125 6.8125 19.722656 6.8125 19.222656 C 6.8125 18.75 7.175781 18.363281 7.636719 18.324219 L 7.71875 17.332031 C 7.558594 17.261719 7.445312 17.097656 7.445312 16.910156 C 7.445312 16.65625 7.648438 16.449219 7.902344 16.449219 C 7.960938 16.449219 8.011719 16.460938 8.0625 16.476562 L 9.78125 14.347656 C 9.738281 14.277344 9.710938 14.191406 9.710938 14.101562 C 9.710938 13.976562 9.761719 13.867188 9.839844 13.785156 L 9.574219 13.265625 C 9.4375 13.316406 9.296875 13.34375 9.144531 13.34375 C 8.929688 13.34375 8.726562 13.285156 8.554688 13.1875 L 7.519531 14.632812 C 7.625 14.753906 7.691406 14.914062 7.691406 15.09375 C 7.691406 15.472656 7.382812 15.78125 7.007812 15.78125 C 6.929688 15.78125 6.851562 15.769531 6.785156 15.742188 L 5.703125 17.519531 C 5.949219 17.71875 6.101562 18.023438 6.101562 18.371094 C 6.101562 18.976562 5.613281 19.46875 5.011719 19.46875 C 4.40625 19.46875 3.917969 18.976562 3.917969 18.371094 C 3.917969 17.875 4.246094 17.457031 4.691406 17.316406 L 4.605469 16.792969 C 4.597656 16.792969 4.59375 16.792969 4.585938 16.792969 C 4.027344 16.792969 3.570312 16.335938 3.570312 15.769531 C 3.570312 15.210938 4.023438 14.753906 4.578125 14.75 L 4.640625 14.296875 C 3.992188 14.136719 3.507812 13.542969 3.507812 12.839844 C 3.507812 12.015625 4.171875 11.34375 4.992188 11.34375 C 5.671875 11.34375 6.25 11.804688 6.421875 12.4375 L 7.917969 12.167969 C 7.917969 12.148438 7.917969 12.128906 7.917969 12.105469 C 7.917969 11.894531 7.972656 11.699219 8.0625 11.523438 L 6.957031 10.746094 C 6.832031 10.859375 6.667969 10.929688 6.488281 10.929688 C 6.105469 10.929688 5.796875 10.617188 5.796875 10.234375 C 5.796875 9.851562 6.105469 9.535156 6.488281 9.535156 C 6.867188 9.535156 7.179688 9.851562 7.179688 10.234375 C 7.179688 10.332031 7.160156 10.417969 7.125 10.5 L 8.230469 11.277344 C 8.386719 11.101562 8.597656 10.96875 8.832031 10.90625 L 8.828125 9.78125 C 8.414062 9.710938 8.097656 9.351562 8.097656 8.914062 C 8.097656 8.429688 8.492188 8.035156 8.972656 8.035156 C 9.257812 8.035156 9.507812 8.167969 9.664062 8.378906 L 11.0625 7.644531 C 11.027344 7.539062 11.007812 7.429688 11.007812 7.3125 C 11.007812 6.761719 11.453125 6.308594 12.007812 6.308594 C 12.558594 6.308594 13.007812 6.757812 13.007812 7.3125 C 13.007812 7.679688 12.8125 8.007812 12.515625 8.179688 L 12.976562 9.328125 C 13.050781 9.3125 13.121094 9.300781 13.203125 9.300781 C 13.382812 9.300781 13.558594 9.351562 13.703125 9.441406 L 14.75 8.160156 C 14.511719 7.914062 14.363281 7.578125 14.363281 7.207031 C 14.363281 6.449219 14.96875 5.835938 15.722656 5.835938 C 16.472656 5.835938 17.085938 6.445312 17.085938 7.207031 C 17.085938 7.542969 16.960938 7.851562 16.761719 8.089844 L 17.800781 9.1875 C 17.863281 9.15625 17.929688 9.140625 18.003906 9.140625 C 18.023438 9.140625 18.042969 9.140625 18.058594 9.144531 L 18.613281 7.941406 C 18.386719 7.78125 18.234375 7.519531 18.234375 7.21875 C 18.234375 6.734375 18.628906 6.335938 19.109375 6.335938 C 19.589844 6.335938 19.980469 6.734375 19.980469 7.21875 C 19.980469 7.324219 19.960938 7.429688 19.929688 7.523438 L 20.808594 8.039062 C 21.027344 7.746094 21.378906 7.558594 21.765625 7.558594 C 22.433594 7.558594 22.972656 8.101562 22.972656 8.769531 C 22.972656 8.933594 22.941406 9.085938 22.882812 9.226562 L 24.183594 9.957031 C 24.363281 9.722656 24.648438 9.566406 24.972656 9.566406 C 25.519531 9.566406 25.96875 10.015625 25.96875 10.570312 C 25.96875 10.859375 25.84375 11.125 25.648438 11.304688 L 26.339844 12.332031 C 26.476562 12.265625 26.628906 12.226562 26.789062 12.226562 C 27.359375 12.226562 27.820312 12.691406 27.820312 13.265625 C 27.820312 13.839844 27.359375 14.304688 26.789062 14.304688 C 26.507812 14.304688 26.253906 14.191406 26.066406 14.003906 L 24.945312 14.863281 C 24.980469 14.945312 24.996094 15.035156 24.996094 15.128906 C 24.996094 15.488281 24.710938 15.777344 24.351562 15.777344 C 24.308594 15.777344 24.265625 15.773438 24.230469 15.765625 L 23.601562 17.167969 C 23.867188 17.34375 24.042969 17.644531 24.042969 17.984375 C 24.042969 18.34375 23.851562 18.65625 23.566406 18.828125 L 23.871094 19.601562 C 23.972656 19.574219 24.070312 19.5625 24.179688 19.5625 C 24.378906 19.5625 24.570312 19.613281 24.738281 19.699219 L 25.8125 18.101562 C 25.488281 17.828125 25.277344 17.414062 25.277344 16.949219 Z M 9.128906 10.875 L 9.125 9.785156 C 9.539062 9.714844 9.847656 9.351562 9.847656 8.917969 C 9.847656 8.824219 9.835938 8.730469 9.808594 8.644531 L 11.203125 7.910156 C 11.382812 8.160156 11.679688 8.324219 12.011719 8.324219 C 12.09375 8.324219 12.167969 8.316406 12.246094 8.296875 L 12.707031 9.445312 C 12.421875 9.613281 12.230469 9.925781 12.230469 10.289062 C 12.230469 10.722656 12.511719 11.089844 12.898438 11.222656 L 12.691406 12.460938 C 12.664062 12.460938 12.636719 12.457031 12.609375 12.457031 C 11.847656 12.457031 11.230469 13.074219 11.230469 13.84375 C 11.230469 14.609375 11.847656 15.230469 12.609375 15.230469 C 13.332031 15.230469 13.921875 14.667969 13.980469 13.953125 L 14.777344 13.933594 C 14.84375 14.105469 15.007812 14.230469 15.203125 14.230469 C 15.34375 14.230469 15.464844 14.167969 15.550781 14.066406 L 16.59375 14.484375 C 16.582031 14.546875 16.574219 14.609375 16.574219 14.671875 C 16.574219 15.160156 16.96875 15.558594 17.453125 15.558594 C 17.9375 15.558594 18.335938 15.160156 18.335938 14.671875 C 18.335938 14.457031 18.257812 14.261719 18.136719 14.105469 L 19.238281 12.820312 C 19.433594 12.949219 19.664062 13.027344 19.910156 13.027344 C 20.574219 13.027344 21.113281 12.484375 21.113281 11.8125 C 21.113281 11.144531 20.574219 10.601562 19.910156 10.601562 C 19.660156 10.601562 19.425781 10.679688 19.230469 10.808594 L 18.410156 9.863281 C 18.449219 9.792969 18.472656 9.707031 18.472656 9.617188 C 18.472656 9.480469 18.417969 9.359375 18.324219 9.269531 L 18.875 8.066406 C 18.945312 8.085938 19.023438 8.097656 19.101562 8.097656 C 19.371094 8.097656 19.613281 7.972656 19.769531 7.777344 L 20.652344 8.292969 C 20.589844 8.441406 20.554688 8.597656 20.554688 8.769531 C 20.554688 9.441406 21.09375 9.980469 21.757812 9.980469 C 21.824219 9.980469 21.890625 9.976562 21.953125 9.964844 L 22.296875 11.171875 C 22.167969 11.257812 22.082031 11.40625 22.082031 11.578125 C 22.082031 11.773438 22.199219 11.941406 22.359375 12.023438 L 22.214844 13.050781 C 21.746094 13.066406 21.371094 13.457031 21.371094 13.933594 C 21.371094 13.984375 21.375 14.039062 21.386719 14.09375 L 20.136719 14.558594 C 20.050781 14.449219 19.921875 14.386719 19.773438 14.386719 C 19.515625 14.386719 19.308594 14.59375 19.308594 14.851562 C 19.308594 14.976562 19.355469 15.085938 19.433594 15.171875 L 18.796875 16.332031 C 18.730469 16.3125 18.664062 16.300781 18.59375 16.300781 C 18.199219 16.300781 17.886719 16.621094 17.886719 17.015625 C 17.886719 17.410156 18.199219 17.726562 18.59375 17.726562 C 18.984375 17.726562 19.300781 17.410156 19.300781 17.015625 L 21.054688 16.636719 C 21.097656 16.707031 21.152344 16.765625 21.21875 16.804688 L 20.703125 19.285156 C 20.664062 19.28125 20.617188 19.277344 20.570312 19.277344 C 20.1875 19.277344 19.835938 19.4375 19.585938 19.699219 L 18.632812 18.960938 C 18.648438 18.914062 18.660156 18.863281 18.660156 18.8125 C 18.660156 18.550781 18.449219 18.34375 18.191406 18.34375 C 17.933594 18.34375 17.726562 18.550781 17.726562 18.8125 C 17.726562 18.859375 17.734375 18.898438 17.746094 18.941406 L 17.144531 19.363281 C 16.890625 19.070312 16.515625 18.882812 16.101562 18.882812 C 15.339844 18.882812 14.722656 19.503906 14.722656 20.269531 C 14.722656 20.285156 14.722656 20.300781 14.722656 20.3125 L 13.691406 20.457031 C 13.632812 20.265625 13.511719 20.101562 13.355469 19.988281 L 14.453125 17.746094 C 14.570312 17.785156 14.695312 17.808594 14.828125 17.808594 C 15.460938 17.808594 15.976562 17.289062 15.976562 16.648438 C 15.976562 16.011719 15.460938 15.496094 14.828125 15.496094 C 14.257812 15.496094 13.785156 15.914062 13.691406 16.464844 L 12.785156 16.433594 C 12.726562 16.246094 12.558594 16.117188 12.359375 16.117188 C 12.113281 16.117188 11.90625 16.316406 11.90625 16.570312 C 11.90625 16.660156 11.933594 16.742188 11.980469 16.816406 L 11.253906 17.765625 C 11.070312 17.652344 10.851562 17.589844 10.625 17.589844 C 9.949219 17.589844 9.398438 18.144531 9.398438 18.828125 C 9.398438 18.832031 9.398438 18.839844 9.398438 18.84375 L 8.558594 18.953125 C 8.464844 18.65625 8.222656 18.421875 7.917969 18.34375 L 8 17.351562 C 8.199219 17.300781 8.34375 17.117188 8.34375 16.90625 C 8.34375 16.816406 8.320312 16.730469 8.277344 16.660156 L 9.996094 14.53125 C 10.046875 14.550781 10.097656 14.558594 10.152344 14.558594 C 10.40625 14.558594 10.609375 14.355469 10.609375 14.097656 C 10.609375 13.847656 10.40625 13.636719 10.152344 13.636719 C 10.128906 13.636719 10.105469 13.636719 10.089844 13.640625 L 9.824219 13.121094 C 10.144531 12.902344 10.359375 12.527344 10.359375 12.101562 C 10.359375 11.417969 9.8125 10.863281 9.132812 10.863281 C 9.125 10.863281 9.121094 10.863281 9.117188 10.863281 Z M 12.980469 12.511719 L 13.1875 11.269531 C 13.191406 11.269531 13.199219 11.269531 13.203125 11.269531 C 13.558594 11.269531 13.867188 11.082031 14.039062 10.800781 L 15.460938 11.390625 C 15.441406 11.472656 15.429688 11.554688 15.429688 11.644531 C 15.429688 12.207031 15.886719 12.664062 16.445312 12.664062 C 17.007812 12.664062 17.460938 12.207031 17.460938 11.644531 C 17.460938 11.367188 17.355469 11.121094 17.179688 10.933594 L 17.847656 10.070312 C 17.898438 10.089844 17.949219 10.097656 18.003906 10.097656 C 18.070312 10.097656 18.132812 10.085938 18.1875 10.058594 L 19.011719 11.007812 C 18.820312 11.222656 18.703125 11.507812 18.703125 11.816406 C 18.703125 12.132812 18.824219 12.414062 19.015625 12.628906 L 17.914062 13.917969 C 17.777344 13.835938 17.625 13.789062 17.453125 13.789062 C 17.136719 13.789062 16.859375 13.957031 16.699219 14.214844 L 15.65625 13.796875 C 15.65625 13.789062 15.65625 13.78125 15.65625 13.773438 C 15.65625 13.515625 15.453125 13.3125 15.199219 13.3125 C 14.996094 13.3125 14.824219 13.449219 14.765625 13.636719 L 13.96875 13.660156 C 13.894531 13.105469 13.5 12.660156 12.976562 12.511719 Z M 16.546875 8.296875 L 17.585938 9.398438 C 17.550781 9.464844 17.527344 9.539062 17.527344 9.621094 C 17.527344 9.71875 17.558594 9.8125 17.609375 9.890625 L 16.941406 10.753906 C 16.796875 10.667969 16.625 10.621094 16.441406 10.621094 C 16.074219 10.621094 15.75 10.820312 15.574219 11.117188 L 14.148438 10.519531 C 14.167969 10.445312 14.175781 10.363281 14.175781 10.285156 C 14.175781 10.03125 14.082031 9.804688 13.925781 9.628906 L 14.972656 8.351562 C 15.1875 8.496094 15.441406 8.574219 15.71875 8.574219 C 16.03125 8.574219 16.316406 8.472656 16.546875 8.292969 Z M 22.582031 11.097656 L 22.234375 9.890625 C 22.4375 9.804688 22.605469 9.664062 22.730469 9.488281 L 24.03125 10.222656 C 23.988281 10.332031 23.96875 10.449219 23.96875 10.574219 C 23.96875 10.660156 23.980469 10.742188 23.996094 10.820312 L 22.945312 11.265625 C 22.855469 11.164062 22.726562 11.097656 22.582031 11.09375 Z M 20.21875 21.976562 L 20.015625 23.246094 C 19.746094 23.277344 19.535156 23.507812 19.535156 23.789062 C 19.535156 24.042969 19.707031 24.257812 19.941406 24.316406 L 19.960938 25.277344 C 19.953125 25.28125 19.941406 25.285156 19.9375 25.289062 L 19.261719 24.722656 C 19.292969 24.660156 19.308594 24.585938 19.308594 24.507812 C 19.308594 24.230469 19.097656 24 18.828125 23.972656 L 18.710938 23.332031 C 19.097656 23.199219 19.375 22.832031 19.375 22.402344 C 19.375 22.222656 19.328125 22.054688 19.242188 21.914062 L 19.617188 21.613281 C 19.78125 21.78125 19.988281 21.910156 20.222656 21.972656 Z M 8.316406 13.019531 L 7.28125 14.460938 C 7.195312 14.425781 7.101562 14.402344 7.007812 14.402344 C 6.628906 14.402344 6.320312 14.714844 6.320312 15.09375 C 6.320312 15.289062 6.402344 15.464844 6.535156 15.589844 L 5.453125 17.363281 C 5.316406 17.300781 5.167969 17.269531 5.011719 17.269531 C 5 17.269531 4.992188 17.269531 4.980469 17.269531 L 4.894531 16.746094 C 5.304688 16.617188 5.601562 16.226562 5.601562 15.773438 C 5.601562 15.308594 5.292969 14.917969 4.871094 14.796875 L 4.933594 14.34375 C 4.953125 14.34375 4.972656 14.34375 4.996094 14.34375 C 5.8125 14.34375 6.480469 13.671875 6.480469 12.847656 C 6.480469 12.808594 6.480469 12.773438 6.476562 12.734375 L 7.972656 12.472656 C 8.039062 12.683594 8.15625 12.875 8.316406 13.023438 Z M 9.4375 16.03125 C 9.4375 15.546875 9.832031 15.152344 10.3125 15.152344 C 10.792969 15.152344 11.183594 15.546875 11.183594 16.03125 C 11.183594 16.515625 10.792969 16.910156 10.3125 16.910156 C 9.832031 16.910156 9.4375 16.515625 9.4375 16.03125 Z M 10.371094 10.132812 C 10.371094 9.878906 10.578125 9.671875 10.832031 9.671875 C 11.085938 9.671875 11.289062 9.878906 11.289062 10.132812 C 11.289062 10.382812 11.085938 10.59375 10.832031 10.59375 C 10.582031 10.59375 10.371094 10.386719 10.371094 10.132812 Z M 10.371094 10.132812 " clip-rule="evenodd"/></clipPath><linearGradient x1="39.985145" gradientTransform="matrix(0.384675, 0, 0, 0.387251, 3.509992, 5.83823)" y1="-0.154478" x2="39.673595" gradientUnits="userSpaceOnUse" y2="52.365337" id="d53e87f110"><stop stop-opacity="1" stop-color="rgb(28.199768%, 79.199219%, 48.999023%)" offset="0"/><stop stop-opacity="1" stop-color="rgb(28.199768%, 79.199219%, 48.999023%)" offset="0.00726688"/><stop stop-opacity="1" stop-color="rgb(28.199768%, 79.199219%, 48.999023%)" offset="0.0625"/><stop stop-opacity="1" stop-color="rgb(28.199768%, 79.199219%, 48.999023%)" offset="0.09375"/><stop stop-opacity="1" stop-color="rgb(28.199768%, 79.199219%, 48.999023%)" offset="0.109375"/><stop stop-opacity="1" stop-color="rgb(28.125%, 79.171753%, 49.116516%)" offset="0.117188"/><stop stop-opacity="1" stop-color="rgb(27.919006%, 79.093933%, 49.443054%)" offset="0.121094"/><stop stop-opacity="1" stop-color="rgb(27.787781%, 79.043579%, 49.6521%)" offset="0.125"/><stop stop-opacity="1" stop-color="rgb(27.655029%, 78.993225%, 49.861145%)" offset="0.128906"/><stop stop-opacity="1" stop-color="rgb(27.523804%, 78.944397%, 50.07019%)" offset="0.132812"/><stop stop-opacity="1" stop-color="rgb(27.391052%, 78.894043%, 50.279236%)" offset="0.136719"/><stop stop-opacity="1" stop-color="rgb(27.259827%, 78.845215%, 50.489807%)" offset="0.140625"/><stop stop-opacity="1" stop-color="rgb(27.127075%, 78.794861%, 50.698853%)" offset="0.144531"/><stop stop-opacity="1" stop-color="rgb(26.99585%, 78.746033%, 50.907898%)" offset="0.148437"/><stop stop-opacity="1" stop-color="rgb(26.863098%, 78.695679%, 51.116943%)" offset="0.152344"/><stop stop-opacity="1" stop-color="rgb(26.731873%, 78.646851%, 51.325989%)" offset="0.15625"/><stop stop-opacity="1" stop-color="rgb(26.599121%, 78.596497%, 51.535034%)" offset="0.160156"/><stop stop-opacity="1" stop-color="rgb(26.467896%, 78.547668%, 51.74408%)" offset="0.164062"/><stop stop-opacity="1" stop-color="rgb(26.335144%, 78.497314%, 51.953125%)" offset="0.167969"/><stop stop-opacity="1" stop-color="rgb(26.203918%, 78.448486%, 52.163696%)" offset="0.171875"/><stop stop-opacity="1" stop-color="rgb(26.071167%, 78.398132%, 52.372742%)" offset="0.175781"/><stop stop-opacity="1" stop-color="rgb(25.939941%, 78.349304%, 52.581787%)" offset="0.179687"/><stop stop-opacity="1" stop-color="rgb(25.80719%, 78.29895%, 52.790833%)" offset="0.183594"/><stop stop-opacity="1" stop-color="rgb(25.675964%, 78.250122%, 52.999878%)" offset="0.1875"/><stop stop-opacity="1" stop-color="rgb(25.543213%, 78.199768%, 53.208923%)" offset="0.191406"/><stop stop-opacity="1" stop-color="rgb(25.410461%, 78.15094%, 53.417969%)" offset="0.195312"/><stop stop-opacity="1" stop-color="rgb(25.27771%, 78.100586%, 53.627014%)" offset="0.199219"/><stop stop-opacity="1" stop-color="rgb(25.146484%, 78.051758%, 53.837585%)" offset="0.203125"/><stop stop-opacity="1" stop-color="rgb(25.013733%, 78.001404%, 54.046631%)" offset="0.207031"/><stop stop-opacity="1" stop-color="rgb(24.882507%, 77.952576%, 54.255676%)" offset="0.210937"/><stop stop-opacity="1" stop-color="rgb(24.749756%, 77.902222%, 54.464722%)" offset="0.214844"/><stop stop-opacity="1" stop-color="rgb(24.61853%, 77.853394%, 54.673767%)" offset="0.21875"/><stop stop-opacity="1" stop-color="rgb(24.485779%, 77.80304%, 54.882812%)" offset="0.222656"/><stop stop-opacity="1" stop-color="rgb(24.354553%, 77.754211%, 55.091858%)" offset="0.226562"/><stop stop-opacity="1" stop-color="rgb(24.221802%, 77.703857%, 55.300903%)" offset="0.230469"/><stop stop-opacity="1" stop-color="rgb(24.090576%, 77.655029%, 55.511475%)" offset="0.234375"/><stop stop-opacity="1" stop-color="rgb(23.957825%, 77.604675%, 55.72052%)" offset="0.238281"/><stop stop-opacity="1" stop-color="rgb(23.826599%, 77.555847%, 55.929565%)" offset="0.242187"/><stop stop-opacity="1" stop-color="rgb(23.693848%, 77.505493%, 56.138611%)" offset="0.246094"/><stop stop-opacity="1" stop-color="rgb(23.562622%, 77.456665%, 56.347656%)" offset="0.25"/><stop stop-opacity="1" stop-color="rgb(23.429871%, 77.406311%, 56.556702%)" offset="0.253906"/><stop stop-opacity="1" stop-color="rgb(23.298645%, 77.357483%, 56.765747%)" offset="0.257812"/><stop stop-opacity="1" stop-color="rgb(23.165894%, 77.307129%, 56.974792%)" offset="0.261719"/><stop stop-opacity="1" stop-color="rgb(23.034668%, 77.258301%, 57.185364%)" offset="0.265625"/><stop stop-opacity="1" stop-color="rgb(22.901917%, 77.207947%, 57.394409%)" offset="0.269531"/><stop stop-opacity="1" stop-color="rgb(22.770691%, 77.159119%, 57.603455%)" offset="0.273437"/><stop stop-opacity="1" stop-color="rgb(22.637939%, 77.108765%, 57.8125%)" offset="0.277344"/><stop stop-opacity="1" stop-color="rgb(22.506714%, 77.059937%, 58.021545%)" offset="0.28125"/><stop stop-opacity="1" stop-color="rgb(22.373962%, 77.009583%, 58.230591%)" offset="0.285156"/><stop stop-opacity="1" stop-color="rgb(22.242737%, 76.960754%, 58.439636%)" offset="0.289062"/><stop stop-opacity="1" stop-color="rgb(22.109985%, 76.9104%, 58.648682%)" offset="0.292969"/><stop stop-opacity="1" stop-color="rgb(21.97876%, 76.861572%, 58.857727%)" offset="0.296875"/><stop stop-opacity="1" stop-color="rgb(21.846008%, 76.811218%, 59.066772%)" offset="0.300781"/><stop stop-opacity="1" stop-color="rgb(21.714783%, 76.76239%, 59.277344%)" offset="0.304688"/><stop stop-opacity="1" stop-color="rgb(21.582031%, 76.712036%, 59.486389%)" offset="0.308594"/><stop stop-opacity="1" stop-color="rgb(21.450806%, 76.663208%, 59.695435%)" offset="0.3125"/><stop stop-opacity="1" stop-color="rgb(21.318054%, 76.612854%, 59.90448%)" offset="0.316406"/><stop stop-opacity="1" stop-color="rgb(21.186829%, 76.564026%, 60.113525%)" offset="0.320312"/><stop stop-opacity="1" stop-color="rgb(21.054077%, 76.513672%, 60.322571%)" offset="0.324219"/><stop stop-opacity="1" stop-color="rgb(20.922852%, 76.464844%, 60.531616%)" offset="0.328125"/><stop stop-opacity="1" stop-color="rgb(20.7901%, 76.41449%, 60.740662%)" offset="0.332031"/><stop stop-opacity="1" stop-color="rgb(20.658875%, 76.365662%, 60.951233%)" offset="0.335938"/><stop stop-opacity="1" stop-color="rgb(20.526123%, 76.315308%, 61.160278%)" offset="0.339844"/><stop stop-opacity="1" stop-color="rgb(20.394897%, 76.266479%, 61.369324%)" offset="0.34375"/><stop stop-opacity="1" stop-color="rgb(20.262146%, 76.216125%, 61.578369%)" offset="0.347656"/><stop stop-opacity="1" stop-color="rgb(20.13092%, 76.167297%, 61.787415%)" offset="0.351563"/><stop stop-opacity="1" stop-color="rgb(19.998169%, 76.116943%, 61.99646%)" offset="0.355469"/><stop stop-opacity="1" stop-color="rgb(19.866943%, 76.068115%, 62.205505%)" offset="0.359375"/><stop stop-opacity="1" stop-color="rgb(19.734192%, 76.017761%, 62.414551%)" offset="0.363281"/><stop stop-opacity="1" stop-color="rgb(19.602966%, 75.968933%, 62.625122%)" offset="0.367187"/><stop stop-opacity="1" stop-color="rgb(19.470215%, 75.918579%, 62.834167%)" offset="0.371094"/><stop stop-opacity="1" stop-color="rgb(19.338989%, 75.868225%, 63.043213%)" offset="0.375"/><stop stop-opacity="1" stop-color="rgb(19.206238%, 75.817871%, 63.252258%)" offset="0.378906"/><stop stop-opacity="1" stop-color="rgb(19.075012%, 75.769043%, 63.461304%)" offset="0.382812"/><stop stop-opacity="1" stop-color="rgb(18.942261%, 75.718689%, 63.670349%)" offset="0.386719"/><stop stop-opacity="1" stop-color="rgb(18.811035%, 75.669861%, 63.879395%)" offset="0.390625"/><stop stop-opacity="1" stop-color="rgb(18.678284%, 75.619507%, 64.08844%)" offset="0.394531"/><stop stop-opacity="1" stop-color="rgb(18.547058%, 75.570679%, 64.299011%)" offset="0.398437"/><stop stop-opacity="1" stop-color="rgb(18.414307%, 75.520325%, 64.508057%)" offset="0.402344"/><stop stop-opacity="1" stop-color="rgb(18.283081%, 75.471497%, 64.717102%)" offset="0.40625"/><stop stop-opacity="1" stop-color="rgb(18.15033%, 75.421143%, 64.926147%)" offset="0.410156"/><stop stop-opacity="1" stop-color="rgb(18.019104%, 75.372314%, 65.135193%)" offset="0.414062"/><stop stop-opacity="1" stop-color="rgb(17.886353%, 75.32196%, 65.344238%)" offset="0.417969"/><stop stop-opacity="1" stop-color="rgb(17.755127%, 75.273132%, 65.553284%)" offset="0.421875"/><stop stop-opacity="1" stop-color="rgb(17.622375%, 75.222778%, 65.762329%)" offset="0.425781"/><stop stop-opacity="1" stop-color="rgb(17.49115%, 75.17395%, 65.9729%)" offset="0.429688"/><stop stop-opacity="1" stop-color="rgb(17.358398%, 75.123596%, 66.181946%)" offset="0.433594"/><stop stop-opacity="1" stop-color="rgb(17.227173%, 75.074768%, 66.390991%)" offset="0.4375"/><stop stop-opacity="1" stop-color="rgb(17.094421%, 75.024414%, 66.600037%)" offset="0.441406"/><stop stop-opacity="1" stop-color="rgb(16.963196%, 74.975586%, 66.809082%)" offset="0.445312"/><stop stop-opacity="1" stop-color="rgb(16.830444%, 74.925232%, 67.018127%)" offset="0.449219"/><stop stop-opacity="1" stop-color="rgb(16.699219%, 74.876404%, 67.227173%)" offset="0.453125"/><stop stop-opacity="1" stop-color="rgb(16.566467%, 74.82605%, 67.436218%)" offset="0.457031"/><stop stop-opacity="1" stop-color="rgb(16.435242%, 74.777222%, 67.64679%)" offset="0.460938"/><stop stop-opacity="1" stop-color="rgb(16.30249%, 74.726868%, 67.855835%)" offset="0.464844"/><stop stop-opacity="1" stop-color="rgb(16.171265%, 74.67804%, 68.06488%)" offset="0.46875"/><stop stop-opacity="1" stop-color="rgb(16.038513%, 74.627686%, 68.273926%)" offset="0.472656"/><stop stop-opacity="1" stop-color="rgb(15.907288%, 74.578857%, 68.482971%)" offset="0.476563"/><stop stop-opacity="1" stop-color="rgb(15.774536%, 74.528503%, 68.692017%)" offset="0.480469"/><stop stop-opacity="1" stop-color="rgb(15.643311%, 74.479675%, 68.901062%)" offset="0.484375"/><stop stop-opacity="1" stop-color="rgb(15.510559%, 74.429321%, 69.110107%)" offset="0.488281"/><stop stop-opacity="1" stop-color="rgb(15.379333%, 74.380493%, 69.319153%)" offset="0.492187"/><stop stop-opacity="1" stop-color="rgb(15.246582%, 74.330139%, 69.528198%)" offset="0.496094"/><stop stop-opacity="1" stop-color="rgb(15.115356%, 74.281311%, 69.73877%)" offset="0.5"/><stop stop-opacity="1" stop-color="rgb(14.982605%, 74.230957%, 69.947815%)" offset="0.503906"/><stop stop-opacity="1" stop-color="rgb(14.851379%, 74.182129%, 70.15686%)" offset="0.507812"/><stop stop-opacity="1" stop-color="rgb(14.718628%, 74.131775%, 70.365906%)" offset="0.511719"/><stop stop-opacity="1" stop-color="rgb(14.587402%, 74.082947%, 70.574951%)" offset="0.515625"/><stop stop-opacity="1" stop-color="rgb(14.454651%, 74.032593%, 70.783997%)" offset="0.519531"/><stop stop-opacity="1" stop-color="rgb(14.323425%, 73.983765%, 70.993042%)" offset="0.523438"/><stop stop-opacity="1" stop-color="rgb(14.190674%, 73.933411%, 71.202087%)" offset="0.527344"/><stop stop-opacity="1" stop-color="rgb(14.059448%, 73.884583%, 71.412659%)" offset="0.53125"/><stop stop-opacity="1" stop-color="rgb(13.926697%, 73.834229%, 71.621704%)" offset="0.535156"/><stop stop-opacity="1" stop-color="rgb(13.795471%, 73.7854%, 71.83075%)" offset="0.539062"/><stop stop-opacity="1" stop-color="rgb(13.66272%, 73.735046%, 72.039795%)" offset="0.542969"/><stop stop-opacity="1" stop-color="rgb(13.531494%, 73.686218%, 72.24884%)" offset="0.546875"/><stop stop-opacity="1" stop-color="rgb(13.398743%, 73.635864%, 72.457886%)" offset="0.550781"/><stop stop-opacity="1" stop-color="rgb(13.267517%, 73.587036%, 72.666931%)" offset="0.554688"/><stop stop-opacity="1" stop-color="rgb(13.134766%, 73.536682%, 72.875977%)" offset="0.558594"/><stop stop-opacity="1" stop-color="rgb(13.00354%, 73.487854%, 73.086548%)" offset="0.5625"/><stop stop-opacity="1" stop-color="rgb(12.870789%, 73.4375%, 73.295593%)" offset="0.566406"/><stop stop-opacity="1" stop-color="rgb(12.739563%, 73.388672%, 73.504639%)" offset="0.570312"/><stop stop-opacity="1" stop-color="rgb(12.606812%, 73.338318%, 73.713684%)" offset="0.574219"/><stop stop-opacity="1" stop-color="rgb(12.475586%, 73.28949%, 73.922729%)" offset="0.578125"/><stop stop-opacity="1" stop-color="rgb(12.342834%, 73.239136%, 74.131775%)" offset="0.582031"/><stop stop-opacity="1" stop-color="rgb(12.211609%, 73.190308%, 74.34082%)" offset="0.585938"/><stop stop-opacity="1" stop-color="rgb(12.078857%, 73.139954%, 74.549866%)" offset="0.589844"/><stop stop-opacity="1" stop-color="rgb(11.947632%, 73.091125%, 74.760437%)" offset="0.59375"/><stop stop-opacity="1" stop-color="rgb(11.81488%, 73.040771%, 74.969482%)" offset="0.597656"/><stop stop-opacity="1" stop-color="rgb(11.683655%, 72.991943%, 75.178528%)" offset="0.601562"/><stop stop-opacity="1" stop-color="rgb(11.550903%, 72.941589%, 75.387573%)" offset="0.605469"/><stop stop-opacity="1" stop-color="rgb(11.419678%, 72.892761%, 75.596619%)" offset="0.609375"/><stop stop-opacity="1" stop-color="rgb(11.286926%, 72.842407%, 75.805664%)" offset="0.613281"/><stop stop-opacity="1" stop-color="rgb(11.155701%, 72.792053%, 76.014709%)" offset="0.617187"/><stop stop-opacity="1" stop-color="rgb(11.022949%, 72.741699%, 76.223755%)" offset="0.621094"/><stop stop-opacity="1" stop-color="rgb(10.891724%, 72.692871%, 76.434326%)" offset="0.625"/><stop stop-opacity="1" stop-color="rgb(10.758972%, 72.642517%, 76.643372%)" offset="0.628906"/><stop stop-opacity="1" stop-color="rgb(10.627747%, 72.593689%, 76.852417%)" offset="0.632812"/><stop stop-opacity="1" stop-color="rgb(10.494995%, 72.543335%, 77.061462%)" offset="0.636719"/><stop stop-opacity="1" stop-color="rgb(10.36377%, 72.494507%, 77.270508%)" offset="0.640625"/><stop stop-opacity="1" stop-color="rgb(10.231018%, 72.444153%, 77.479553%)" offset="0.644531"/><stop stop-opacity="1" stop-color="rgb(10.099792%, 72.395325%, 77.688599%)" offset="0.648437"/><stop stop-opacity="1" stop-color="rgb(9.967041%, 72.344971%, 77.897644%)" offset="0.652344"/><stop stop-opacity="1" stop-color="rgb(9.835815%, 72.296143%, 78.106689%)" offset="0.65625"/><stop stop-opacity="1" stop-color="rgb(9.703064%, 72.245789%, 78.315735%)" offset="0.660156"/><stop stop-opacity="1" stop-color="rgb(9.571838%, 72.19696%, 78.526306%)" offset="0.664062"/><stop stop-opacity="1" stop-color="rgb(9.439087%, 72.146606%, 78.735352%)" offset="0.667969"/><stop stop-opacity="1" stop-color="rgb(9.307861%, 72.097778%, 78.944397%)" offset="0.671875"/><stop stop-opacity="1" stop-color="rgb(9.17511%, 72.047424%, 79.153442%)" offset="0.675781"/><stop stop-opacity="1" stop-color="rgb(9.043884%, 71.998596%, 79.362488%)" offset="0.679687"/><stop stop-opacity="1" stop-color="rgb(8.911133%, 71.948242%, 79.571533%)" offset="0.683594"/><stop stop-opacity="1" stop-color="rgb(8.779907%, 71.899414%, 79.780579%)" offset="0.6875"/><stop stop-opacity="1" stop-color="rgb(8.647156%, 71.84906%, 79.989624%)" offset="0.691406"/><stop stop-opacity="1" stop-color="rgb(8.51593%, 71.800232%, 80.200195%)" offset="0.695312"/><stop stop-opacity="1" stop-color="rgb(8.383179%, 71.749878%, 80.409241%)" offset="0.699219"/><stop stop-opacity="1" stop-color="rgb(8.251953%, 71.70105%, 80.618286%)" offset="0.703125"/><stop stop-opacity="1" stop-color="rgb(8.119202%, 71.650696%, 80.827332%)" offset="0.707031"/><stop stop-opacity="1" stop-color="rgb(7.987976%, 71.601868%, 81.036377%)" offset="0.710937"/><stop stop-opacity="1" stop-color="rgb(7.855225%, 71.551514%, 81.245422%)" offset="0.714844"/><stop stop-opacity="1" stop-color="rgb(7.723999%, 71.502686%, 81.454468%)" offset="0.71875"/><stop stop-opacity="1" stop-color="rgb(7.591248%, 71.452332%, 81.663513%)" offset="0.722656"/><stop stop-opacity="1" stop-color="rgb(7.460022%, 71.403503%, 81.874084%)" offset="0.726562"/><stop stop-opacity="1" stop-color="rgb(7.327271%, 71.353149%, 82.08313%)" offset="0.730469"/><stop stop-opacity="1" stop-color="rgb(7.196045%, 71.304321%, 82.292175%)" offset="0.734375"/><stop stop-opacity="1" stop-color="rgb(7.063293%, 71.253967%, 82.501221%)" offset="0.738281"/><stop stop-opacity="1" stop-color="rgb(6.932068%, 71.205139%, 82.710266%)" offset="0.742188"/><stop stop-opacity="1" stop-color="rgb(6.799316%, 71.154785%, 82.919312%)" offset="0.746094"/><stop stop-opacity="1" stop-color="rgb(6.668091%, 71.105957%, 83.128357%)" offset="0.75"/><stop stop-opacity="1" stop-color="rgb(6.535339%, 71.055603%, 83.337402%)" offset="0.753906"/><stop stop-opacity="1" stop-color="rgb(6.404114%, 71.006775%, 83.547974%)" offset="0.757812"/><stop stop-opacity="1" stop-color="rgb(6.271362%, 70.956421%, 83.757019%)" offset="0.761719"/><stop stop-opacity="1" stop-color="rgb(6.140137%, 70.907593%, 83.966064%)" offset="0.765625"/><stop stop-opacity="1" stop-color="rgb(6.007385%, 70.857239%, 84.17511%)" offset="0.769531"/><stop stop-opacity="1" stop-color="rgb(5.87616%, 70.808411%, 84.384155%)" offset="0.773438"/><stop stop-opacity="1" stop-color="rgb(5.743408%, 70.758057%, 84.593201%)" offset="0.777344"/><stop stop-opacity="1" stop-color="rgb(5.612183%, 70.709229%, 84.802246%)" offset="0.78125"/><stop stop-opacity="1" stop-color="rgb(5.479431%, 70.658875%, 85.011292%)" offset="0.785156"/><stop stop-opacity="1" stop-color="rgb(5.348206%, 70.610046%, 85.221863%)" offset="0.789062"/><stop stop-opacity="1" stop-color="rgb(5.215454%, 70.559692%, 85.430908%)" offset="0.792969"/><stop stop-opacity="1" stop-color="rgb(5.084229%, 70.510864%, 85.639954%)" offset="0.796875"/><stop stop-opacity="1" stop-color="rgb(4.951477%, 70.46051%, 85.848999%)" offset="0.800781"/><stop stop-opacity="1" stop-color="rgb(4.820251%, 70.411682%, 86.058044%)" offset="0.804688"/><stop stop-opacity="1" stop-color="rgb(4.6875%, 70.361328%, 86.26709%)" offset="0.808594"/><stop stop-opacity="1" stop-color="rgb(4.556274%, 70.3125%, 86.476135%)" offset="0.8125"/><stop stop-opacity="1" stop-color="rgb(4.423523%, 70.262146%, 86.685181%)" offset="0.816406"/><stop stop-opacity="1" stop-color="rgb(4.292297%, 70.213318%, 86.895752%)" offset="0.820312"/><stop stop-opacity="1" stop-color="rgb(4.159546%, 70.162964%, 87.104797%)" offset="0.824219"/><stop stop-opacity="1" stop-color="rgb(4.02832%, 70.114136%, 87.313843%)" offset="0.828125"/><stop stop-opacity="1" stop-color="rgb(3.895569%, 70.063782%, 87.522888%)" offset="0.832031"/><stop stop-opacity="1" stop-color="rgb(3.764343%, 70.014954%, 87.731934%)" offset="0.835938"/><stop stop-opacity="1" stop-color="rgb(3.631592%, 69.9646%, 87.940979%)" offset="0.839844"/><stop stop-opacity="1" stop-color="rgb(3.500366%, 69.915771%, 88.150024%)" offset="0.84375"/><stop stop-opacity="1" stop-color="rgb(3.367615%, 69.865417%, 88.35907%)" offset="0.847656"/><stop stop-opacity="1" stop-color="rgb(3.236389%, 69.816589%, 88.568115%)" offset="0.851562"/><stop stop-opacity="1" stop-color="rgb(3.103638%, 69.766235%, 88.777161%)" offset="0.855469"/><stop stop-opacity="1" stop-color="rgb(2.972412%, 69.715881%, 88.987732%)" offset="0.859375"/><stop stop-opacity="1" stop-color="rgb(2.839661%, 69.665527%, 89.196777%)" offset="0.863281"/><stop stop-opacity="1" stop-color="rgb(2.708435%, 69.616699%, 89.405823%)" offset="0.867188"/><stop stop-opacity="1" stop-color="rgb(2.575684%, 69.566345%, 89.614868%)" offset="0.871094"/><stop stop-opacity="1" stop-color="rgb(2.444458%, 69.517517%, 89.823914%)" offset="0.875"/><stop stop-opacity="1" stop-color="rgb(2.311707%, 69.467163%, 90.032959%)" offset="0.878906"/><stop stop-opacity="1" stop-color="rgb(2.180481%, 69.418335%, 90.242004%)" offset="0.882812"/><stop stop-opacity="1" stop-color="rgb(2.047729%, 69.367981%, 90.45105%)" offset="0.886719"/><stop stop-opacity="1" stop-color="rgb(1.916504%, 69.319153%, 90.661621%)" offset="0.890625"/><stop stop-opacity="1" stop-color="rgb(1.783752%, 69.268799%, 90.870667%)" offset="0.894531"/><stop stop-opacity="1" stop-color="rgb(1.652527%, 69.219971%, 91.079712%)" offset="0.898438"/><stop stop-opacity="1" stop-color="rgb(1.519775%, 69.169617%, 91.288757%)" offset="0.902344"/><stop stop-opacity="1" stop-color="rgb(1.38855%, 69.120789%, 91.497803%)" offset="0.90625"/><stop stop-opacity="1" stop-color="rgb(1.255798%, 69.070435%, 91.706848%)" offset="0.910156"/><stop stop-opacity="1" stop-color="rgb(1.124573%, 69.021606%, 91.915894%)" offset="0.914062"/><stop stop-opacity="1" stop-color="rgb(0.991821%, 68.971252%, 92.124939%)" offset="0.917969"/><stop stop-opacity="1" stop-color="rgb(0.860596%, 68.922424%, 92.33551%)" offset="0.921875"/><stop stop-opacity="1" stop-color="rgb(0.727844%, 68.87207%, 92.544556%)" offset="0.925781"/><stop stop-opacity="1" stop-color="rgb(0.596619%, 68.823242%, 92.753601%)" offset="0.929688"/><stop stop-opacity="1" stop-color="rgb(0.463867%, 68.772888%, 92.962646%)" offset="0.933594"/><stop stop-opacity="1" stop-color="rgb(0.332642%, 68.72406%, 93.171692%)" offset="0.9375"/><stop stop-opacity="1" stop-color="rgb(0.19989%, 68.673706%, 93.380737%)" offset="0.941406"/><stop stop-opacity="1" stop-color="rgb(0.0686646%, 68.624878%, 93.589783%)" offset="0.945312"/><stop stop-opacity="1" stop-color="rgb(0.0335693%, 68.611145%, 93.644714%)" offset="0.953125"/><stop stop-opacity="1" stop-color="rgb(0%, 68.598938%, 93.699646%)" offset="0.96875"/><stop stop-opacity="1" stop-color="rgb(0%, 68.598938%, 93.699646%)" offset="0.992733"/><stop stop-opacity="1" stop-color="rgb(0%, 68.598938%, 93.699646%)" offset="1"/></linearGradient></defs><g clip-path="url(#426e6a91b4)"><path fill="#ffffff" d="M 0 0 L 31.5 0 L 31.5 39 L 0 39 Z M 0 0 " fill-opacity="1" fill-rule="nonzero"/><path fill="#ffffff" d="M 0 0 L 31.5 0 L 31.5 31.5 L 0 31.5 Z M 0 0 " fill-opacity="1" fill-rule="nonzero"/><path fill="#0e7044" d="M 0 0 L 31.5 0 L 31.5 31.5 L 0 31.5 Z M 0 0 " fill-opacity="1" fill-rule="nonzero"/></g><g clip-path="url(#11d07ea6da)"><g clip-path="url(#a8a6f9a53c)"><path fill="url(#d53e87f110)" d="M 3.511719 5.835938 L 3.511719 26.027344 L 28.261719 26.027344 L 28.261719 5.835938 Z M 3.511719 5.835938 " fill-rule="nonzero"/></g></g></svg>