<svg xmlns="http://www.w3.org/2000/svg" xmlns:xlink="http://www.w3.org/1999/xlink" width="16" height="16" preserveAspectRatio="xMidYMid meet" version="1.0" viewBox="0 0 15.5 15.5" zoomAndPan="magnify"><defs><clipPath id="426e6a91b4"><path d="M 0 0 L 31.007812 0 L 31.007812 31.007812 L 0 31.007812 Z M 0 0" clip-rule="nonzero"/></clipPath><clipPath id="11d07ea6da"><path d="M 3.511719 5.804688 L 28.261719 5.804688 L 28.261719 26.054688 L 3.511719 26.054688 Z M 3.511719 5.804688" clip-rule="nonzero"/></clipPath><clipPath id="a8a6f9a53c"><path d="M 25.269531 16.957031 C 25.269531 16.125 25.941406 15.453125 26.765625 15.453125 C 27.59375 15.453125 28.261719 16.128906 28.261719 16.957031 C 28.261719 17.789062 27.589844 18.457031 26.765625 18.457031 C 26.507812 18.457031 26.261719 18.394531 26.050781 18.277344 L 24.976562 19.871094 C 25.230469 20.097656 25.390625 20.425781 25.390625 20.796875 C 25.390625 21.476562 24.84375 22.023438 24.171875 22.023438 C 23.496094 22.023438 22.953125 21.476562 22.953125 20.796875 C 22.953125 20.332031 23.210938 19.925781 23.589844 19.722656 L 23.285156 18.945312 C 23.21875 18.960938 23.144531 18.96875 23.070312 18.96875 C 22.535156 18.96875 22.105469 18.53125 22.105469 17.996094 C 22.105469 17.460938 22.539062 17.023438 23.070312 17.023438 C 23.160156 17.023438 23.246094 17.035156 23.328125 17.058594 L 23.957031 15.65625 C 23.800781 15.535156 23.703125 15.347656 23.703125 15.140625 C 23.703125 14.78125 23.988281 14.488281 24.347656 14.488281 C 24.503906 14.488281 24.648438 14.542969 24.757812 14.640625 L 25.882812 13.78125 C 25.800781 13.632812 25.753906 13.460938 25.753906 13.277344 C 25.753906 12.976562 25.886719 12.699219 26.089844 12.511719 L 25.398438 11.484375 C 25.265625 11.546875 25.121094 11.582031 24.96875 11.582031 C 24.605469 11.582031 24.289062 11.386719 24.117188 11.101562 L 23.0625 11.546875 C 23.0625 11.5625 23.066406 11.578125 23.066406 11.589844 C 23.066406 11.832031 22.890625 12.035156 22.660156 12.074219 L 22.515625 13.101562 C 22.871094 13.214844 23.125 13.546875 23.125 13.941406 C 23.125 14.421875 22.730469 14.820312 22.25 14.820312 C 21.929688 14.820312 21.648438 14.640625 21.492188 14.378906 L 20.242188 14.84375 C 20.242188 14.84375 20.242188 14.847656 20.242188 14.855469 C 20.242188 15.117188 20.035156 15.324219 19.777344 15.324219 C 19.75 15.324219 19.71875 15.320312 19.691406 15.316406 L 19.058594 16.480469 C 19.136719 16.550781 19.199219 16.636719 19.242188 16.730469 L 20.996094 16.359375 C 21.023438 16.128906 21.21875 15.945312 21.457031 15.945312 C 21.714844 15.945312 21.925781 16.15625 21.925781 16.414062 C 21.925781 16.652344 21.742188 16.851562 21.511719 16.878906 L 20.996094 19.355469 C 21.542969 19.535156 21.9375 20.050781 21.9375 20.660156 C 21.9375 21.414062 21.328125 22.027344 20.574219 22.027344 C 20.550781 22.027344 20.527344 22.027344 20.503906 22.027344 L 20.300781 23.300781 C 20.484375 23.382812 20.617188 23.574219 20.617188 23.796875 C 20.617188 24.042969 20.453125 24.25 20.230469 24.316406 L 20.25 25.277344 C 20.394531 25.332031 20.496094 25.476562 20.496094 25.636719 C 20.496094 25.851562 20.324219 26.027344 20.113281 26.027344 C 19.902344 26.027344 19.726562 25.851562 19.726562 25.636719 C 19.726562 25.601562 19.734375 25.5625 19.746094 25.523438 L 19.074219 24.957031 C 18.988281 25.015625 18.886719 25.050781 18.769531 25.050781 C 18.472656 25.050781 18.234375 24.808594 18.234375 24.511719 C 18.234375 24.296875 18.359375 24.117188 18.535156 24.027344 L 18.421875 23.382812 C 18.414062 23.382812 18.402344 23.382812 18.394531 23.382812 C 17.855469 23.382812 17.414062 22.941406 17.414062 22.402344 C 17.414062 21.859375 17.855469 21.417969 18.394531 21.417969 C 18.652344 21.417969 18.882812 21.519531 19.054688 21.679688 L 19.429688 21.382812 C 19.292969 21.167969 19.214844 20.921875 19.214844 20.652344 C 19.214844 20.390625 19.289062 20.148438 19.417969 19.9375 L 18.460938 19.203125 C 18.390625 19.253906 18.300781 19.285156 18.203125 19.285156 C 18.101562 19.285156 18.003906 19.25 17.925781 19.191406 L 17.324219 19.613281 C 17.429688 19.808594 17.488281 20.035156 17.488281 20.273438 C 17.488281 21.042969 16.875 21.660156 16.113281 21.660156 C 15.464844 21.660156 14.925781 21.214844 14.777344 20.613281 L 13.746094 20.753906 C 13.734375 21.246094 13.335938 21.640625 12.84375 21.640625 C 12.34375 21.640625 11.9375 21.234375 11.9375 20.730469 C 11.9375 20.226562 12.34375 19.820312 12.84375 19.820312 C 12.933594 19.820312 13.023438 19.835938 13.105469 19.859375 L 14.203125 17.617188 C 13.921875 17.429688 13.730469 17.117188 13.695312 16.761719 L 12.789062 16.730469 C 12.722656 16.902344 12.5625 17.023438 12.367188 17.023438 C 12.320312 17.023438 12.273438 17.015625 12.226562 17 L 11.5 17.949219 C 11.726562 18.171875 11.863281 18.480469 11.863281 18.828125 C 11.863281 19.507812 11.316406 20.0625 10.636719 20.0625 C 10.070312 20.0625 9.585938 19.667969 9.449219 19.136719 L 8.605469 19.25 C 8.589844 19.734375 8.195312 20.125 7.710938 20.125 C 7.214844 20.125 6.8125 19.722656 6.8125 19.222656 C 6.8125 18.75 7.175781 18.363281 7.636719 18.324219 L 7.71875 17.332031 C 7.558594 17.261719 7.445312 17.097656 7.445312 16.910156 C 7.445312 16.65625 7.648438 16.449219 7.902344 16.449219 C 7.960938 16.449219 8.011719 16.460938 8.0625 16.476562 L 9.78125 14.347656 C 9.738281 14.277344 9.710938 14.191406 9.710938 14.101562 C 9.710938 13.976562 9.761719 13.867188 9.839844 13.785156 L 9.574219 13.265625 C 9.4375 13.316406 9.296875 13.34375 9.144531 13.34375 C 8.929688 13.34375 8.726562 13.285156 8.554688 13.1875 L 7.519531 14.632812 C 7.625 14.753906 7.691406 14.914062 7.691406 15.09375 C 7.691406 15.472656 7.382812 15.78125 7.007812 15.78125 C 6.929688 15.78125 6.851562 15.769531 6.785156 15.742188 L 5.703125 17.519531 C 5.949219 17.71875 6.101562 18.023438 6.101562 18.371094 C 6.101562 18.976562 5.613281 19.46875 5.011719 19.46875 C 4.40625 19.46875 3.917969 18.976562 3.917969 18.371094 C 3.917969 17.875 4.246094 17.457031 4.691406 17.316406 L 4.605469 16.792969 C 4.597656 16.792969 4.59375 16.792969 4.585938 16.792969 C 4.027344 16.792969 3.570312 16.335938 3.570312 15.769531 C 3.570312 15.210938 4.023438 14.753906 4.578125 14.75 L 4.640625 14.296875 C 3.992188 14.136719 3.507812 13.542969 3.507812 12.839844 C 3.507812 12.015625 4.171875 11.34375 4.992188 11.34375 C 5.671875 11.34375 6.25 11.804688 6.421875 12.4375 L 7.917969 12.167969 C 7.917969 12.148438 7.917969 12.128906 7.917969 12.105469 C 7.917969 11.894531 7.972656 11.699219 8.0625 11.523438 L 6.957031 10.746094 C 6.832031 10.859375 6.667969 10.929688 6.488281 10.929688 C 6.105469 10.929688 5.796875 10.617188 5.796875 10.234375 C 5.796875 9.851562 6.105469 9.535156 6.488281 9.535156 C 6.867188 9.535156 7.179688 9.851562 7.179688 10.234375 C 7.179688 10.332031 7.160156 10.417969 7.125 10.5 L 8.230469 11.277344 C 8.386719 11.101562 8.597656 10.96875 8.832031 10.90625 L 8.828125 9.78125 C 8.414062 9.710938 8.097656 9.351562 8.097656 8.914062 C 8.097656 8.429688 8.492188 8.035156 8.972656 8.035156 C 9.257812 8.035156 9.507812 8.167969 9.664062 8.378906 L 11.0625 7.644531 C 11.027344 7.539062 11.007812 7.429688 11.007812 7.3125 C 11.007812 6.761719 11.453125 6.308594 12.007812 6.308594 C 12.558594 6.308594 13.007812 6.757812 13.007812 7.3125 C 13.007812 7.679688 12.8125 8.007812 12.515625 8.179688 L 12.976562 9.328125 C 13.050781 9.3125 13.121094 9.300781 13.203125 9.300781 C 13.382812 9.300781 13.558594 9.351562 13.703125 9.441406 L 14.75 8.160156 C 14.511719 7.914062 14.363281 7.578125 14.363281 7.207031 C 14.363281 6.449219 14.96875 5.835938 15.722656 5.835938 C 16.472656 5.835938 17.085938 6.445312 17.085938 7.207031 C 17.085938 7.542969 16.960938 7.851562 16.761719 8.089844 L 17.800781 9.1875 C 17.863281 9.15625 17.929688 9.140625 18.003906 9.140625 C 18.023438 9.140625 18.042969 9.140625 18.058594 9.144531 L 18.613281 7.941406 C 18.386719 7.78125 18.234375 7.519531 18.234375 7.21875 C 18.234375 6.734375 18.628906 6.335938 19.109375 6.335938 C 19.589844 6.335938 19.980469 6.734375 19.980469 7.21875 C 19.980469 7.324219 19.960938 7.429688 19.929688 7.523438 L 20.808594 8.039062 C 21.027344 7.746094 21.378906 7.558594 21.765625 7.558594 C 22.433594 7.558594 22.972656 8.101562 22.972656 8.769531 C 22.972656 8.933594 22.941406 9.085938 22.882812 9.226562 L 24.183594 9.957031 C 24.363281 9.722656 24.648438 9.566406 24.972656 9.566406 C 25.519531 9.566406 25.96875 10.015625 25.96875 10.570312 C 25.96875 10.859375 25.84375 11.125 25.648438 11.304688 L 26.339844 12.332031 C 26.476562 12.265625 26.628906 12.226562 26.789062 12.226562 C 27.359375 12.226562 27.820312 12.691406 27.820312 13.265625 C 27.820312 13.839844 27.359375 14.304688 26.789062 14.304688 C 26.507812 14.304688 26.253906 14.191406 26.066406 14.003906 L 24.945312 14.863281 C 24.980469 14.945312 24.996094 15.035156 24.996094 15.128906 C 24.996094 15.488281 24.710938 15.777344 24.351562 15.777344 C 24.308594 15.777344 24.265625 15.773438 24.230469 15.765625 L 23.601562 17.167969 C 23.867188 17.34375 24.042969 17.644531 24.042969 17.984375 C 24.042969 18.34375 23.851562 18.65625 23.566406 18.828125 L 23.871094 19.601562 C 23.972656 19.574219 24.070312 19.5625 24.179688 19.5625 C 24.378906 19.5625 24.570312 19.613281 24.738281 19.699219 L 25.8125 18.101562 C 25.488281 17.828125 25.277344 17.414062 25.277344 16.949219 Z M 9.128906 10.875 L 9.125 9.785156 C 9.539062 9.714844 9.847656 9.351562 9.847656 8.917969 C 9.847656 8.824219 9.835938 8.730469 9.808594 8.644531 L 11.203125 7.910156 C 11.382812 8.160156 11.679688 8.324219 12.011719 8.324219 C 12.09375 8.324219 12.167969 8.316406 12.246094 8.296875 L 12.707031 9.445312 C 12.421875 9.613281 12.230469 9.925781 12.230469 10.289062 C 12.230469 10.722656 12.511719 11.089844 12.898438 11.222656 L 12.691406 12.460938 C 12.664062 12.460938 12.636719 12.457031 12.609375 12.457031 C 11.847656 12.457031 11.230469 13.074219 11.230469 13.84375 C 11.230469 14.609375 11.847656 15.230469 12.609375 15.230469 C 13.332031 15.230469 13.921875 14.667969 13.980469 13.953125 L 14.777344 13.933594 C 14.84375 14.105469 15.007812 14.230469 15.203125 14.230469 C 15.34375 14.230469 15.464844 14.167969 15.550781 14.066406 L 16.59375 14.484375 C 16.582031 14.546875 16.574219 14.609375 16.574219 14.671875 C 16.574219 15.160156 16.96875 15.558594 17.453125 15.558594 C 17.9375 15.558594 18.335938 15.160156 18.335938 14.671875 C 18.335938 14.457031 18.257812 14.261719 18.136719 14.105469 L 19.238281 12.820312 C 19.433594 12.949219 19.664062 13.027344 19.910156 13.027344 C 20.574219 13.027344 21.113281 12.484375 21.113281 11.8125 C 21.113281 11.144531 20.574219 10.601562 19.910156 10.601562 C 19.660156 10.601562 19.425781 10.679688 19.230469 10.808594 L 18.410156 9.863281 C 18.449219 9.792969 18.472656 9.707031 18.472656 9.617188 C 18.472656 9.480469 18.417969 9.359375 18.324219 9.269531 L 18.875 8.066406 C 18.945312 8.085938 19.023438 8.097656 19.101562 8.097656 C 19.371094 8.097656 19.613281 7.972656 19.769531 7.777344 L 20.652344 8.292969 C 20.589844 8.441406 20.554688 8.597656 20.554688 8.769531 C 20.554688 9.441406 21.09375 9.980469 21.757812 9.980469 C 21.824219 9.980469 21.890625 9.976562 21.953125 9.964844 L 22.296875 11.171875 C 22.167969 11.257812 22.082031 11.40625 22.082031 11.578125 C 22.082031 11.773438 22.199219 11.941406 22.359375 12.023438 L 22.214844 13.050781 C 21.746094 13.066406 21.371094 13.457031 21.371094 13.933594 C 21.371094 13.984375 21.375 14.039062 21.386719 14.09375 L 20.136719 14.558594 C 20.050781 14.449219 19.921875 14.386719 19.773438 14.386719 C 19.515625 14.386719 19.308594 14.59375 19.308594 14.851562 C 19.308594 14.976562 19.355469 15.085938 19.433594 15.171875 L 18.796875 16.332031 C 18.730469 16.3125 18.664062 16.300781 18.59375 16.300781 C 18.199219 16.300781 17.886719 16.621094 17.886719 17.015625 C 17.886719 17.410156 18.199219 17.726562 18.59375 17.726562 C 18.984375 17.726562 19.300781 17.410156 19.300781 17.015625 L 21.054688 16.636719 C 21.097656 16.707031 21.152344 16.765625 21.21875 16.804688 L 20.703125 19.285156 C 20.664062 19.28125 20.617188 19.277344 20.570312 19.277344 C 20.1875 19.277344 19.835938 19.4375 19.585938 19.699219 L 18.632812 18.960938 C 18.648438 18.914062 18.660156 18.863281 18.660156 18.8125 C 18.660156 18.550781 18.449219 18.34375 18.191406 18.34375 C 17.933594 18.34375 17.726562 18.550781 17.726562 18.8125 C 17.726562 18.859375 17.734375 18.898438 17.746094 18.941406 L 17.144531 19.363281 C 16.890625 19.070312 16.515625 18.882812 16.101562 18.882812 C 15.339844 18.882812 14.722656 19.503906 14.722656 20.269531 C 14.722656 20.285156 14.722656 20.300781 14.722656 20.3125 L 13.691406 20.457031 C 13.632812 20.265625 13.511719 20.101562 13.355469 19.988281 L 14.453125 17.746094 C 14.570312 17.785156 14.695312 17.808594 14.828125 17.808594 C 15.460938 17.808594 15.976562 17.289062 15.976562 16.648438 C 15.976562 16.011719 15.460938 15.496094 14.828125 15.496094 C 14.257812 15.496094 13.785156 15.914062 13.691406 16.464844 L 12.785156 16.433594 C 12.726562 16.246094 12.558594 16.117188 12.359375 16.117188 C 12.113281 16.117188 11.90625 16.316406 11.90625 16.570312 C 11.90625 16.660156 11.933594 16.742188 11.980469 16.816406 L 11.253906 17.765625 C 11.070312 17.652344 10.851562 17.589844 10.625 17.589844 C 9.949219 17.589844 9.398438 18.144531 9.398438 18.828125 C 9.398438 18.832031 9.398438 18.839844 9.398438 18.84375 L 8.558594 18.953125 C 8.464844 18.65625 8.222656 18.421875 7.917969 18.34375 L 8 17.351562 C 8.199219 17.300781 8.34375 17.117188 8.34375 16.90625 C 8.34375 16.816406 8.320312 16.730469 8.277344 16.660156 L 9.996094 14.53125 C 10.046875 14.550781 10.097656 14.558594 10.152344 14.558594 C 10.40625 14.558594 10.609375 14.355469 10.609375 14.097656 C 10.609375 13.847656 10.40625 13.636719 10.152344 13.636719 C 10.128906 13.636719 10.105469 13.636719 10.089844 13.640625 L 9.824219 13.121094 C 10.144531 12.902344 10.359375 12.527344 10.359375 12.101562 C 10.359375 11.417969 9.8125 10.863281 9.132812 10.863281 C 9.125 10.863281 9.121094 10.863281 9.117188 10.863281 Z M 12.980469 12.511719 L 13.1875 11.269531 C 13.191406 11.269531 13.199219 11.269531 13.203125 11.269531 C 13.558594 11.269531 13.867188 11.082031 14.039062 10.800781 L 15.460938 11.390625 C 15.441406 11.472656 15.429688 11.554688 15.429688 11.644531 C 15.429688 12.207031 15.886719 12.664062 16.445312 12.664062 C 17.007812 12.664062 17.460938 12.207031 17.460938 11.644531 C 17.460938 11.367188 17.355469 11.121094 17.179688 10.933594 L 17.847656 10.070312 C 17.898438 10.089844 17.949219 10.097656 18.003906 10.097656 C 18.070312 10.097656 18.132812 10.085938 18.1875 10.058594 L 19.011719 11.007812 C 18.820312 11.222656 18.703125 11.507812 18.703125 11.816406 C 18.703125 12.132812 18.824219 12.414062 19.015625 12.628906 L 17.914062 13.917969 C 17.777344 13.835938 17.625 13.789062 17.453125 13.789062 C 17.136719 13.789062 16.859375 13.957031 16.699219 14.214844 L 15.65625 13.796875 C 15.65625 13.789062 15.65625 13.78125 15.65625 13.773438 C 15.65625 13.515625 15.453125 13.3125 15.199219 13.3125 C 14.996094 13.3125 14.824219 13.449219 14.765625 13.636719 L 13.96875 13.660156 C 13.894531 13.105469 13.5 12.660156 12.976562 12.511719 Z M 16.546875 8.296875 L 17.585938 9.398438 C 17.550781 9.464844 17.527344 9.539062 17.527344 9.621094 C 17.527344 9.71875 17.558594 9.8125 17.609375 9.890625 L 16.941406 10.753906 C 16.796875 10.667969 16.625 10.621094 16.441406 10.621094 C 16.074219 10.621094 15.75 10.820312 15.574219 11.117188 L 14.148438 10.519531 C 14.167969 10.445312 14.175781 10.363281 14.175781 10.285156 C 14.175781 10.03125 14.082031 9.804688 13.925781 9.628906 L 14.972656 8.351562 C 15.1875 8.496094 15.441406 8.574219 15.71875 8.574219 C 16.03125 8.574219 16.316406 8.472656 16.546875 8.292969 Z M 22.582031 11.097656 L 22.234375 9.890625 C 22.4375 9.804688 22.605469 9.664062 22.730469 9.488281 L 24.03125 10.222656 C 23.988281 10.332031 23.96875 10.449219 23.96875 10.574219 C 23.96875 10.660156 23.980469 10.742188 23.996094 10.820312 L 22.945312 11.265625 C 22.855469 11.164062 22.726562 11.097656 22.582031 11.09375 Z M 20.21875 21.976562 L 20.015625 23.246094 C 19.746094 23.277344 19.535156 23.507812 19.535156 23.789062 C 19.535156 24.042969 19.707031 24.257812 19.941406 24.316406 L 19.960938 25.277344 C 19.953125 25.28125 19.941406 25.285156 19.9375 25.289062 L 19.261719 24.722656 C 19.292969 24.660156 19.308594 24.585938 19.308594 24.507812 C 19.308594 24.230469 19.097656 24 18.828125 23.972656 L 18.710938 23.332031 C 19.097656 23.199219 19.375 22.832031 19.375 22.402344 C 19.375 22.222656 19.328125 22.054688 19.242188 21.914062 L 19.617188 21.613281 C 19.78125 21.78125 19.988281 21.910156 20.222656 21.972656 Z M 8.316406 13.019531 L 7.28125 14.460938 C 7.195312 14.425781 7.101562 14.402344 7.007812 14.402344 C 6.628906 14.402344 6.320312 14.714844 6.320312 15.09375 C 6.320312 15.289062 6.402344 15.464844 6.535156 15.589844 L 5.453125 17.363281 C 5.316406 17.300781 5.167969 17.269531 5.011719 17.269531 C 5 17.269531 4.992188 17.269531 4.980469 17.269531 L 4.894531 16.746094 C 5.304688 16.617188 5.601562 16.226562 5.601562 15.773438 C 5.601562 15.308594 5.292969 14.917969 4.871094 14.796875 L 4.933594 14.34375 C 4.953125 14.34375 4.972656 14.34375 4.996094 14.34375 C 5.8125 14.34375 6.480469 13.671875 6.480469 12.847656 C 6.480469 12.808594 6.480469 12.773438 6.476562 12.734375 L 7.972656 12.472656 C 8.039062 12.683594 8.15625 12.875 8.316406 13.023438 Z M 9.4375 16.03125 C 9.4375 15.546875 9.832031 15.152344 10.3125 15.152344 C 10.792969 15.152344 11.183594 15.546875 11.183594 16.03125 C 11.183594 16.515625 10.792969 16.910156 10.3125 16.910156 C 9.832031 16.910156 9.4375 16.515625 9.4375 16.03125 Z M 10.371094 10.132812 C 10.371094 9.878906 10.578125 9.671875 10.832031 9.671875 C 11.085938 9.671875 11.289062 9.878906 11.289062 10.132812 C 11.289062 10.382812 11.085938 10.59375 10.832031 10.59375 C 10.582031 10.59375 10.371094 10.386719 10.371094 10.132812 Z M 10.371094 10.132812" clip-rule="evenodd"/></clipPath><linearGradient id="d53e87f110" x1="39.985" x2="39.674" y1="-.154" y2="52.365" gradientTransform="matrix(0.384675, 0, 0, 0.387251, 3.509992, 5.83823)" gradientUnits="userSpaceOnUse"><stop offset="0" stop-color="#48CA7D" stop-opacity="1"/><stop offset=".007" stop-color="#48CA7D" stop-opacity="1"/><stop offset=".063" stop-color="#48CA7D" stop-opacity="1"/><stop offset=".094" stop-color="#48CA7D" stop-opacity="1"/><stop offset=".109" stop-color="#48CA7D" stop-opacity="1"/><stop offset=".117" stop-color="#48CA7D" stop-opacity="1"/><stop offset=".121" stop-color="#47CA7E" stop-opacity="1"/><stop offset=".125" stop-color="#47CA7F" stop-opacity="1"/><stop offset=".129" stop-color="#47C97F" stop-opacity="1"/><stop offset=".133" stop-color="#46C980" stop-opacity="1"/><stop offset=".137" stop-color="#46C980" stop-opacity="1"/><stop offset=".141" stop-color="#46C981" stop-opacity="1"/><stop offset=".145" stop-color="#45C981" stop-opacity="1"/><stop offset=".148" stop-color="#45C982" stop-opacity="1"/><stop offset=".152" stop-color="#45C982" stop-opacity="1"/><stop offset=".156" stop-color="#44C983" stop-opacity="1"/><stop offset=".16" stop-color="#44C883" stop-opacity="1"/><stop offset=".164" stop-color="#43C884" stop-opacity="1"/><stop offset=".168" stop-color="#43C884" stop-opacity="1"/><stop offset=".172" stop-color="#43C885" stop-opacity="1"/><stop offset=".176" stop-color="#42C886" stop-opacity="1"/><stop offset=".18" stop-color="#42C886" stop-opacity="1"/><stop offset=".184" stop-color="#42C887" stop-opacity="1"/><stop offset=".188" stop-color="#41C887" stop-opacity="1"/><stop offset=".191" stop-color="#41C788" stop-opacity="1"/><stop offset=".195" stop-color="#41C788" stop-opacity="1"/><stop offset=".199" stop-color="#40C789" stop-opacity="1"/><stop offset=".203" stop-color="#40C789" stop-opacity="1"/><stop offset=".207" stop-color="#40C78A" stop-opacity="1"/><stop offset=".211" stop-color="#3FC78A" stop-opacity="1"/><stop offset=".215" stop-color="#3FC78B" stop-opacity="1"/><stop offset=".219" stop-color="#3FC78B" stop-opacity="1"/><stop offset=".223" stop-color="#3EC68C" stop-opacity="1"/><stop offset=".227" stop-color="#3EC68C" stop-opacity="1"/><stop offset=".23" stop-color="#3EC68D" stop-opacity="1"/><stop offset=".234" stop-color="#3DC68E" stop-opacity="1"/><stop offset=".238" stop-color="#3DC68E" stop-opacity="1"/><stop offset=".242" stop-color="#3DC68F" stop-opacity="1"/><stop offset=".246" stop-color="#3CC68F" stop-opacity="1"/><stop offset=".25" stop-color="#3CC690" stop-opacity="1"/><stop offset=".254" stop-color="#3CC590" stop-opacity="1"/><stop offset=".258" stop-color="#3BC591" stop-opacity="1"/><stop offset=".262" stop-color="#3BC591" stop-opacity="1"/><stop offset=".266" stop-color="#3BC592" stop-opacity="1"/><stop offset=".27" stop-color="#3AC592" stop-opacity="1"/><stop offset=".273" stop-color="#3AC593" stop-opacity="1"/><stop offset=".277" stop-color="#3AC593" stop-opacity="1"/><stop offset=".281" stop-color="#39C594" stop-opacity="1"/><stop offset=".285" stop-color="#39C494" stop-opacity="1"/><stop offset=".289" stop-color="#39C495" stop-opacity="1"/><stop offset=".293" stop-color="#38C496" stop-opacity="1"/><stop offset=".297" stop-color="#38C496" stop-opacity="1"/><stop offset=".301" stop-color="#38C497" stop-opacity="1"/><stop offset=".305" stop-color="#37C497" stop-opacity="1"/><stop offset=".309" stop-color="#37C498" stop-opacity="1"/><stop offset=".313" stop-color="#37C398" stop-opacity="1"/><stop offset=".316" stop-color="#36C399" stop-opacity="1"/><stop offset=".32" stop-color="#36C399" stop-opacity="1"/><stop offset=".324" stop-color="#36C39A" stop-opacity="1"/><stop offset=".328" stop-color="#35C39A" stop-opacity="1"/><stop offset=".332" stop-color="#35C39B" stop-opacity="1"/><stop offset=".336" stop-color="#35C39B" stop-opacity="1"/><stop offset=".34" stop-color="#34C39C" stop-opacity="1"/><stop offset=".344" stop-color="#34C29C" stop-opacity="1"/><stop offset=".348" stop-color="#34C29D" stop-opacity="1"/><stop offset=".352" stop-color="#33C29E" stop-opacity="1"/><stop offset=".355" stop-color="#33C29E" stop-opacity="1"/><stop offset=".359" stop-color="#33C29F" stop-opacity="1"/><stop offset=".363" stop-color="#32C29F" stop-opacity="1"/><stop offset=".367" stop-color="#32C2A0" stop-opacity="1"/><stop offset=".371" stop-color="#32C2A0" stop-opacity="1"/><stop offset=".375" stop-color="#31C1A1" stop-opacity="1"/><stop offset=".379" stop-color="#31C1A1" stop-opacity="1"/><stop offset=".383" stop-color="#31C1A2" stop-opacity="1"/><stop offset=".387" stop-color="#30C1A2" stop-opacity="1"/><stop offset=".391" stop-color="#30C1A3" stop-opacity="1"/><stop offset=".395" stop-color="#30C1A3" stop-opacity="1"/><stop offset=".398" stop-color="#2FC1A4" stop-opacity="1"/><stop offset=".402" stop-color="#2FC1A4" stop-opacity="1"/><stop offset=".406" stop-color="#2FC0A5" stop-opacity="1"/><stop offset=".41" stop-color="#2EC0A6" stop-opacity="1"/><stop offset=".414" stop-color="#2EC0A6" stop-opacity="1"/><stop offset=".418" stop-color="#2EC0A7" stop-opacity="1"/><stop offset=".422" stop-color="#2DC0A7" stop-opacity="1"/><stop offset=".426" stop-color="#2DC0A8" stop-opacity="1"/><stop offset=".43" stop-color="#2DC0A8" stop-opacity="1"/><stop offset=".434" stop-color="#2CC0A9" stop-opacity="1"/><stop offset=".438" stop-color="#2CBFA9" stop-opacity="1"/><stop offset=".441" stop-color="#2CBFAA" stop-opacity="1"/><stop offset=".445" stop-color="#2BBFAA" stop-opacity="1"/><stop offset=".449" stop-color="#2BBFAB" stop-opacity="1"/><stop offset=".453" stop-color="#2BBFAB" stop-opacity="1"/><stop offset=".457" stop-color="#2ABFAC" stop-opacity="1"/><stop offset=".461" stop-color="#2ABFAC" stop-opacity="1"/><stop offset=".465" stop-color="#2ABFAD" stop-opacity="1"/><stop offset=".469" stop-color="#29BEAE" stop-opacity="1"/><stop offset=".473" stop-color="#29BEAE" stop-opacity="1"/><stop offset=".477" stop-color="#29BEAF" stop-opacity="1"/><stop offset=".48" stop-color="#28BEAF" stop-opacity="1"/><stop offset=".484" stop-color="#28BEB0" stop-opacity="1"/><stop offset=".488" stop-color="#28BEB0" stop-opacity="1"/><stop offset=".492" stop-color="#27BEB1" stop-opacity="1"/><stop offset=".496" stop-color="#27BEB1" stop-opacity="1"/><stop offset=".5" stop-color="#27BDB2" stop-opacity="1"/><stop offset=".504" stop-color="#26BDB2" stop-opacity="1"/><stop offset=".508" stop-color="#26BDB3" stop-opacity="1"/><stop offset=".512" stop-color="#26BDB3" stop-opacity="1"/><stop offset=".516" stop-color="#25BDB4" stop-opacity="1"/><stop offset=".52" stop-color="#25BDB4" stop-opacity="1"/><stop offset=".523" stop-color="#25BDB5" stop-opacity="1"/><stop offset=".527" stop-color="#24BDB6" stop-opacity="1"/><stop offset=".531" stop-color="#24BCB6" stop-opacity="1"/><stop offset=".535" stop-color="#24BCB7" stop-opacity="1"/><stop offset=".539" stop-color="#23BCB7" stop-opacity="1"/><stop offset=".543" stop-color="#23BCB8" stop-opacity="1"/><stop offset=".547" stop-color="#23BCB8" stop-opacity="1"/><stop offset=".551" stop-color="#22BCB9" stop-opacity="1"/><stop offset=".555" stop-color="#22BCB9" stop-opacity="1"/><stop offset=".559" stop-color="#21BCBA" stop-opacity="1"/><stop offset=".563" stop-color="#21BBBA" stop-opacity="1"/><stop offset=".566" stop-color="#21BBBB" stop-opacity="1"/><stop offset=".57" stop-color="#20BBBB" stop-opacity="1"/><stop offset=".574" stop-color="#20BBBC" stop-opacity="1"/><stop offset=".578" stop-color="#20BBBD" stop-opacity="1"/><stop offset=".582" stop-color="#1FBBBD" stop-opacity="1"/><stop offset=".586" stop-color="#1FBBBE" stop-opacity="1"/><stop offset=".59" stop-color="#1FBBBE" stop-opacity="1"/><stop offset=".594" stop-color="#1EBABF" stop-opacity="1"/><stop offset=".598" stop-color="#1EBABF" stop-opacity="1"/><stop offset=".602" stop-color="#1EBAC0" stop-opacity="1"/><stop offset=".605" stop-color="#1DBAC0" stop-opacity="1"/><stop offset=".609" stop-color="#1DBAC1" stop-opacity="1"/><stop offset=".613" stop-color="#1DBAC1" stop-opacity="1"/><stop offset=".617" stop-color="#1CBAC2" stop-opacity="1"/><stop offset=".621" stop-color="#1CB9C2" stop-opacity="1"/><stop offset=".625" stop-color="#1CB9C3" stop-opacity="1"/><stop offset=".629" stop-color="#1BB9C3" stop-opacity="1"/><stop offset=".633" stop-color="#1BB9C4" stop-opacity="1"/><stop offset=".637" stop-color="#1BB9C5" stop-opacity="1"/><stop offset=".641" stop-color="#1AB9C5" stop-opacity="1"/><stop offset=".645" stop-color="#1AB9C6" stop-opacity="1"/><stop offset=".648" stop-color="#1AB9C6" stop-opacity="1"/><stop offset=".652" stop-color="#19B8C7" stop-opacity="1"/><stop offset=".656" stop-color="#19B8C7" stop-opacity="1"/><stop offset=".66" stop-color="#19B8C8" stop-opacity="1"/><stop offset=".664" stop-color="#18B8C8" stop-opacity="1"/><stop offset=".668" stop-color="#18B8C9" stop-opacity="1"/><stop offset=".672" stop-color="#18B8C9" stop-opacity="1"/><stop offset=".676" stop-color="#17B8CA" stop-opacity="1"/><stop offset=".68" stop-color="#17B8CA" stop-opacity="1"/><stop offset=".684" stop-color="#17B7CB" stop-opacity="1"/><stop offset=".688" stop-color="#16B7CB" stop-opacity="1"/><stop offset=".691" stop-color="#16B7CC" stop-opacity="1"/><stop offset=".695" stop-color="#16B7CD" stop-opacity="1"/><stop offset=".699" stop-color="#15B7CD" stop-opacity="1"/><stop offset=".703" stop-color="#15B7CE" stop-opacity="1"/><stop offset=".707" stop-color="#15B7CE" stop-opacity="1"/><stop offset=".711" stop-color="#14B7CF" stop-opacity="1"/><stop offset=".715" stop-color="#14B6CF" stop-opacity="1"/><stop offset=".719" stop-color="#14B6D0" stop-opacity="1"/><stop offset=".723" stop-color="#13B6D0" stop-opacity="1"/><stop offset=".727" stop-color="#13B6D1" stop-opacity="1"/><stop offset=".73" stop-color="#13B6D1" stop-opacity="1"/><stop offset=".734" stop-color="#12B6D2" stop-opacity="1"/><stop offset=".738" stop-color="#12B6D2" stop-opacity="1"/><stop offset=".742" stop-color="#12B6D3" stop-opacity="1"/><stop offset=".746" stop-color="#11B5D3" stop-opacity="1"/><stop offset=".75" stop-color="#11B5D4" stop-opacity="1"/><stop offset=".754" stop-color="#11B5D5" stop-opacity="1"/><stop offset=".758" stop-color="#10B5D5" stop-opacity="1"/><stop offset=".762" stop-color="#10B5D6" stop-opacity="1"/><stop offset=".766" stop-color="#10B5D6" stop-opacity="1"/><stop offset=".77" stop-color="#0FB5D7" stop-opacity="1"/><stop offset=".773" stop-color="#0FB5D7" stop-opacity="1"/><stop offset=".777" stop-color="#0FB4D8" stop-opacity="1"/><stop offset=".781" stop-color="#0EB4D8" stop-opacity="1"/><stop offset=".785" stop-color="#0EB4D9" stop-opacity="1"/><stop offset=".789" stop-color="#0EB4D9" stop-opacity="1"/><stop offset=".793" stop-color="#0DB4DA" stop-opacity="1"/><stop offset=".797" stop-color="#0DB4DA" stop-opacity="1"/><stop offset=".801" stop-color="#0DB4DB" stop-opacity="1"/><stop offset=".805" stop-color="#0CB4DB" stop-opacity="1"/><stop offset=".809" stop-color="#0CB3DC" stop-opacity="1"/><stop offset=".813" stop-color="#0CB3DD" stop-opacity="1"/><stop offset=".816" stop-color="#0BB3DD" stop-opacity="1"/><stop offset=".82" stop-color="#0BB3DE" stop-opacity="1"/><stop offset=".824" stop-color="#0BB3DE" stop-opacity="1"/><stop offset=".828" stop-color="#0AB3DF" stop-opacity="1"/><stop offset=".832" stop-color="#0AB3DF" stop-opacity="1"/><stop offset=".836" stop-color="#0AB3E0" stop-opacity="1"/><stop offset=".84" stop-color="#09B2E0" stop-opacity="1"/><stop offset=".844" stop-color="#09B2E1" stop-opacity="1"/><stop offset=".848" stop-color="#09B2E1" stop-opacity="1"/><stop offset=".852" stop-color="#08B2E2" stop-opacity="1"/><stop offset=".855" stop-color="#08B2E2" stop-opacity="1"/><stop offset=".859" stop-color="#08B2E3" stop-opacity="1"/><stop offset=".863" stop-color="#07B2E3" stop-opacity="1"/><stop offset=".867" stop-color="#07B2E4" stop-opacity="1"/><stop offset=".871" stop-color="#07B1E5" stop-opacity="1"/><stop offset=".875" stop-color="#06B1E5" stop-opacity="1"/><stop offset=".879" stop-color="#06B1E6" stop-opacity="1"/><stop offset=".883" stop-color="#06B1E6" stop-opacity="1"/><stop offset=".887" stop-color="#05B1E7" stop-opacity="1"/><stop offset=".891" stop-color="#05B1E7" stop-opacity="1"/><stop offset=".895" stop-color="#05B1E8" stop-opacity="1"/><stop offset=".898" stop-color="#04B1E8" stop-opacity="1"/><stop offset=".902" stop-color="#04B0E9" stop-opacity="1"/><stop offset=".906" stop-color="#04B0E9" stop-opacity="1"/><stop offset=".91" stop-color="#03B0EA" stop-opacity="1"/><stop offset=".914" stop-color="#03B0EA" stop-opacity="1"/><stop offset=".918" stop-color="#03B0EB" stop-opacity="1"/><stop offset=".922" stop-color="#02B0EB" stop-opacity="1"/><stop offset=".926" stop-color="#02B0EC" stop-opacity="1"/><stop offset=".93" stop-color="#02AFED" stop-opacity="1"/><stop offset=".934" stop-color="#01AFED" stop-opacity="1"/><stop offset=".938" stop-color="#01AFEE" stop-opacity="1"/><stop offset=".941" stop-color="#01AFEE" stop-opacity="1"/><stop offset=".945" stop-color="#00AFEF" stop-opacity="1"/><stop offset=".953" stop-color="#00AFEF" stop-opacity="1"/><stop offset=".969" stop-color="#00AFEF" stop-opacity="1"/><stop offset=".993" stop-color="#00AFEF" stop-opacity="1"/><stop offset="1" stop-color="#00AFEF" stop-opacity="1"/></linearGradient></defs><g clip-path="url(#426e6a91b4)"><path fill="#fff" fill-opacity="1" fill-rule="nonzero" d="M 0 0 L 31.5 0 L 31.5 39 L 0 39 Z M 0 0"/><path fill="#fff" fill-opacity="1" fill-rule="nonzero" d="M 0 0 L 31.5 0 L 31.5 31.5 L 0 31.5 Z M 0 0"/><path fill="#0e7044" fill-opacity="1" fill-rule="nonzero" d="M 0 0 L 31.5 0 L 31.5 31.5 L 0 31.5 Z M 0 0"/></g><g clip-path="url(#11d07ea6da)"><g clip-path="url(#a8a6f9a53c)"><path fill="url(#d53e87f110)" fill-rule="nonzero" d="M 3.511719 5.835938 L 3.511719 26.027344 L 28.261719 26.027344 L 28.261719 5.835938 Z M 3.511719 5.835938"/></g></g></svg>